<mxfile host="65bd71144e">
    <diagram id="wchiuT_AfNnw1r3C1ELz" name="Page-1">
        <mxGraphModel dx="1441" dy="877" grid="1" gridSize="10" guides="1" tooltips="1" connect="1" arrows="1" fold="1" page="1" pageScale="1" pageWidth="850" pageHeight="1100" math="0" shadow="0">
            <root>
                <mxCell id="0"/>
                <mxCell id="1" parent="0"/>
                <mxCell id="3" value="" style="strokeWidth=1;shadow=0;dashed=0;align=center;html=1;shape=mxgraph.mockup.containers.browserWindow;rSize=0;strokeColor=#666666;strokeColor2=#008cff;strokeColor3=#c4c4c4;mainText=,;recursiveResize=0;" parent="1" vertex="1">
                    <mxGeometry x="143.6" y="90" width="1170" height="710" as="geometry"/>
                </mxCell>
                <mxCell id="4" value="Page 1" style="strokeWidth=1;shadow=0;dashed=0;align=center;html=1;shape=mxgraph.mockup.containers.anchor;fontSize=17;fontColor=#666666;align=left;" parent="3" vertex="1">
                    <mxGeometry x="60" y="12" width="110" height="26" as="geometry"/>
                </mxCell>
                <mxCell id="5" value="https://www.draw.io" style="strokeWidth=1;shadow=0;dashed=0;align=center;html=1;shape=mxgraph.mockup.containers.anchor;rSize=0;fontSize=17;fontColor=#666666;align=left;" parent="3" vertex="1">
                    <mxGeometry x="130" y="60" width="250" height="26" as="geometry"/>
                </mxCell>
                <mxCell id="6" value="Logo" style="rounded=1;whiteSpace=wrap;html=1;" parent="3" vertex="1">
                    <mxGeometry x="40" y="130" width="100" height="40" as="geometry"/>
                </mxCell>
                <mxCell id="9" value="" style="strokeWidth=1;shadow=0;dashed=0;align=center;html=1;shape=mxgraph.mockup.text.rrect;rSize=0;strokeColor=#666666;container=0;" parent="3" vertex="1">
                    <mxGeometry x="160" y="130" width="390" height="40" as="geometry"/>
                </mxCell>
                <mxCell id="14" value="" style="group" parent="3" vertex="1" connectable="0">
                    <mxGeometry x="160" y="130" width="390" height="40" as="geometry"/>
                </mxCell>
                <mxCell id="10" value="Phòng ban" style="strokeWidth=1;shadow=0;dashed=0;align=center;html=1;shape=mxgraph.mockup.text.rrect;rSize=0;fontSize=17;" parent="14" vertex="1">
                    <mxGeometry x="130" width="130" height="40" as="geometry"/>
                </mxCell>
                <mxCell id="11" value="Bảng lương" style="strokeWidth=1;shadow=0;dashed=0;align=center;html=1;shape=mxgraph.mockup.text.rrect;rSize=0;fontSize=17;" parent="14" vertex="1">
                    <mxGeometry x="260" width="130" height="40" as="geometry"/>
                </mxCell>
                <mxCell id="13" value="Nhân viên" style="strokeWidth=1;shadow=0;dashed=0;align=center;html=1;shape=mxgraph.mockup.text.rrect;rSize=0;fontSize=17;fontColor=#ffffff;fillColor=#008cff;strokeColor=#008cff;" parent="14" vertex="1">
                    <mxGeometry width="130" height="40" as="geometry"/>
                </mxCell>
                <mxCell id="15" value="Nhân viên" style="text;strokeColor=none;fillColor=none;html=1;fontSize=24;fontStyle=1;verticalAlign=middle;align=center;" parent="3" vertex="1">
                    <mxGeometry x="-9" y="220" width="150" height="40" as="geometry"/>
                </mxCell>
                <mxCell id="133" value="/" style="strokeWidth=1;shadow=0;dashed=0;align=center;html=1;shape=mxgraph.mockup.navigation.anchor;fontSize=24;fontColor=#aaaaaa;fontStyle=1;" vertex="1" parent="3">
                    <mxGeometry x="126" y="228" width="20" height="30" as="geometry"/>
                </mxCell>
                <mxCell id="134" value="Nguyễn Văn A" style="strokeWidth=1;shadow=0;dashed=0;align=center;html=1;shape=mxgraph.mockup.navigation.anchor;fontSize=17;fontColor=#008cff;fontStyle=1;" vertex="1" parent="3">
                    <mxGeometry x="150" y="226" width="120" height="30" as="geometry"/>
                </mxCell>
                <mxCell id="136" value="&lt;p style=&quot;box-sizing: border-box ; margin-top: 0px ; margin-bottom: 1rem ; font-size: 16px&quot;&gt;&lt;font color=&quot;#ffffff&quot;&gt;Ngày sinh:&amp;nbsp;01/01/2003&lt;/font&gt;&lt;/p&gt;&lt;p style=&quot;box-sizing: border-box ; margin-top: 0px ; margin-bottom: 1rem ; font-size: 16px&quot;&gt;&lt;font color=&quot;#ffffff&quot;&gt;Ngày vào công ty:&amp;nbsp;30/04/2019&lt;/font&gt;&lt;/p&gt;&lt;p style=&quot;box-sizing: border-box ; margin-top: 0px ; margin-bottom: 1rem ; font-size: 16px&quot;&gt;&lt;font color=&quot;#ffffff&quot;&gt;Phòng ban:&amp;nbsp;Finance&lt;/font&gt;&lt;/p&gt;&lt;p style=&quot;box-sizing: border-box ; margin-top: 0px ; margin-bottom: 1rem ; font-size: 16px&quot;&gt;&lt;font color=&quot;#ffffff&quot;&gt;Số ngày nghỉ còn lại:&amp;nbsp;9&lt;/font&gt;&lt;/p&gt;&lt;p style=&quot;box-sizing: border-box ; margin-top: 0px ; margin-bottom: 1rem ; font-size: 16px&quot;&gt;&lt;font color=&quot;#ffffff&quot;&gt;Số ngày đã làm thêm:&amp;nbsp;10&lt;/font&gt;&lt;/p&gt;" style="strokeWidth=1;shadow=0;dashed=0;align=left;html=1;shape=mxgraph.mockup.text.bulletedList;textColor=#666666;mainText=,,,,;textSize=17;bulletStyle=none;strokeColor=none;fillColor=none;align=left;verticalAlign=top;fontSize=17;fontColor=#666666;" vertex="1" parent="3">
                    <mxGeometry x="160" y="310" width="190" height="180" as="geometry"/>
                </mxCell>
                <mxCell id="19" value="" style="verticalLabelPosition=bottom;shadow=0;dashed=0;align=center;html=1;verticalAlign=top;strokeWidth=1;shape=mxgraph.mockup.containers.userMale;strokeColor=#666666;strokeColor2=#008cff;" parent="3" vertex="1">
                    <mxGeometry x="8.4" y="300" width="141.6" height="160" as="geometry"/>
                </mxCell>
                <mxCell id="20" value="&lt;font style=&quot;font-size: 18px&quot;&gt;Họ và tên: Nguyễn Văn A&lt;/font&gt;" style="text;strokeColor=none;fillColor=none;html=1;fontSize=24;fontStyle=1;verticalAlign=middle;align=center;" parent="3" vertex="1">
                    <mxGeometry x="202.6" y="280" width="124.8" height="30" as="geometry"/>
                </mxCell>
                <mxCell id="79" style="edgeStyle=none;html=1;exitX=1;exitY=0;exitDx=0;exitDy=0;entryX=1;entryY=0.25;entryDx=0;entryDy=0;fontSize=18;" parent="3" source="20" target="20" edge="1">
                    <mxGeometry relative="1" as="geometry"/>
                </mxCell>
            </root>
        </mxGraphModel>
    </diagram>
</mxfile>